<?xml version="1.0" standalone="no"?>
<!DOCTYPE svg PUBLIC "-//W3C//DTD SVG 20010904//EN"
 "http://www.w3.org/TR/2001/REC-SVG-20010904/DTD/svg10.dtd">
<svg version="1.0" xmlns="http://www.w3.org/2000/svg"
 width="700.000000pt" height="700.000000pt" viewBox="0 0 700.000000 700.000000"
 preserveAspectRatio="xMidYMid meet">
<metadata>
Created by potrace 1.14, written by Peter Selinger 2001-2017
</metadata>
<g transform="translate(0.000000,700.000000) scale(0.100000,-0.100000)"
fill="#000000" stroke="none">
<path d="M5116 6897 c-25 -18 -27 -53 -5 -73 10 -9 19 -14 19 -11 0 11 82 -25
130 -56 55 -37 125 -109 171 -176 35 -53 55 -66 83 -55 54 21 8 115 -118 239
-100 98 -237 163 -280 132z"/>
<path d="M5098 6678 c-40 -33 -30 -53 52 -101 61 -35 134 -109 171 -174 25
-44 35 -53 59 -53 28 0 40 15 40 49 0 26 -70 130 -118 176 -44 41 -157 115
-177 115 -6 0 -18 -6 -27 -12z"/>
<path d="M5580 6670 c-17 -31 -4 -54 43 -77 63 -32 137 -102 195 -185 122
-178 189 -371 208 -598 7 -93 15 -110 49 -110 41 0 48 22 41 122 -21 292 -143
578 -321 753 -103 102 -191 140 -215 95z"/>
<path d="M5128 6386 c-10 -22 -5 -32 40 -93 179 -242 272 -507 240 -685 -22
-121 -110 -238 -220 -292 l-56 -28 -74 27 c-189 68 -549 115 -605 79 -26 -17
-30 -46 -8 -67 11 -11 39 -16 102 -16 160 -2 306 -26 474 -80 53 -17 101 -31
108 -31 6 0 33 10 59 22 330 152 403 465 204 878 -44 90 -137 237 -180 283
-33 34 -69 36 -84 3z"/>
<path d="M2593 6036 c-85 -39 -87 -185 -3 -247 33 -25 89 -32 120 -16 38 19
70 74 70 121 0 107 -98 182 -187 142z m71 -91 c32 -33 27 -95 -9 -95 -24 0
-49 59 -36 86 12 28 24 30 45 9z"/>
<path d="M3425 5773 c-60 -31 -85 -72 -85 -136 0 -112 130 -186 220 -124 65
44 88 104 67 172 -27 84 -128 128 -202 88z m107 -100 c31 -28 1 -93 -44 -93
-52 0 -76 62 -37 101 22 22 50 19 81 -8z"/>
<path d="M5922 5678 c-28 -28 -13 -55 64 -113 86 -66 152 -142 184 -212 34
-75 36 -78 59 -81 94 -14 39 149 -95 284 -115 115 -181 153 -212 122z"/>
<path d="M3968 5525 c-10 -22 -8 -30 10 -53 31 -38 66 -108 86 -168 19 -58 43
-72 77 -46 18 16 19 21 9 66 -35 156 -146 279 -182 201z"/>
<path d="M4236 5498 c-13 -19 -13 -25 1 -57 27 -64 73 -202 73 -222 0 -20 33
-59 50 -59 14 0 52 39 46 48 -2 4 -7 23 -10 42 -14 90 -77 244 -105 259 -28
16 -38 14 -55 -11z"/>
<path d="M5860 5456 c-22 -28 -7 -60 40 -84 25 -13 64 -42 88 -65 42 -41 43
-41 70 -26 52 29 11 100 -93 160 -55 32 -86 36 -105 15z"/>
<path d="M1435 5403 c-111 -22 -177 -89 -210 -214 -15 -57 -11 -123 15 -219
46 -168 128 -326 214 -411 l36 -36 -101 -57 c-87 -50 -102 -56 -112 -43 -12
15 -28 21 -55 18 -19 -2 -31 -43 -19 -69 7 -16 7 -26 0 -33 -8 -8 -17 0 -32
29 -21 42 -46 57 -75 46 -29 -11 -30 -49 -1 -99 l27 -46 -23 -20 c-109 -93
-179 -181 -179 -224 0 -8 -12 -25 -26 -38 -95 -81 -144 -213 -123 -331 21
-116 41 -162 98 -228 41 -46 145 -108 182 -108 9 0 37 -18 61 -40 88 -82 271
-148 474 -172 l103 -11 -31 -45 c-61 -88 -82 -180 -56 -237 7 -16 40 -43 79
-66 116 -67 166 -129 213 -259 36 -99 84 -178 120 -197 21 -11 44 -14 80 -9
l51 6 -2 -181 c-1 -100 -4 -183 -6 -186 -3 -2 -17 -6 -32 -9 -121 -22 -198
-113 -198 -234 0 -74 18 -118 61 -149 102 -73 366 -26 493 87 74 66 135 211
154 367 4 28 8 60 10 73 6 33 22 409 24 550 1 57 3 64 24 70 12 3 50 20 85 38
l62 33 0 -34 c0 -39 31 -68 60 -57 23 9 70 52 138 126 45 50 55 56 65 44 23
-29 44 -27 78 7 39 39 49 43 49 18 0 -10 16 -88 36 -173 69 -302 82 -437 99
-992 l5 -147 -44 -20 c-137 -60 -224 -228 -171 -331 27 -52 123 -91 232 -94
164 -4 246 18 314 86 69 70 109 157 125 273 3 28 7 52 9 55 2 3 6 29 10 59 4
30 8 62 10 72 2 9 7 39 11 66 3 26 8 57 10 67 2 11 8 56 14 100 6 45 12 95 15
111 2 17 7 59 10 95 4 36 8 75 10 87 2 12 7 60 10 105 4 46 8 93 10 106 9 57
19 344 18 507 l-1 180 74 0 c41 0 74 -3 74 -7 0 -4 -5 -19 -11 -34 -14 -37 -4
-70 22 -77 32 -9 65 31 80 97 10 46 19 63 50 87 20 16 47 29 59 29 19 0 21 -4
16 -34 -3 -18 -10 -45 -16 -60 -18 -47 -13 -75 15 -82 52 -13 67 8 90 131 9
48 19 73 32 80 10 6 39 30 65 56 l47 45 6 -40 c11 -70 54 -234 76 -288 11 -29
64 -111 118 -183 131 -174 174 -241 176 -273 11 -161 16 -242 19 -267 2 -16 7
-82 11 -147 6 -103 4 -117 -10 -126 -37 -20 -134 -125 -160 -173 -50 -93 -31
-189 45 -234 30 -17 52 -20 145 -20 137 1 184 14 236 66 74 74 112 173 194
499 65 263 78 336 79 445 1 113 -6 132 -82 225 -59 72 -82 127 -87 203 -4 73
6 130 68 367 24 96 48 191 51 210 3 19 8 46 11 60 6 28 42 229 49 275 43 259
51 602 21 825 -8 58 -43 188 -64 235 l-19 44 56 11 c165 32 338 104 348 146 7
29 -10 54 -38 54 -10 0 -41 -11 -68 -25 -100 -51 -232 -90 -337 -101 -95 -10
-103 -30 -50 -134 41 -82 71 -189 83 -296 16 -135 10 -428 -12 -608 -26 -217
-79 -504 -123 -666 -76 -285 -86 -350 -70 -453 12 -75 40 -133 100 -208 28
-35 56 -75 61 -89 17 -44 11 -135 -19 -275 -8 -38 -17 -81 -19 -95 -3 -14 -18
-77 -35 -140 -74 -282 -97 -347 -151 -427 -34 -51 -75 -65 -194 -67 -92 -1
-124 15 -124 64 0 49 95 166 179 221 19 12 25 24 25 55 0 39 -12 271 -19 361
-2 27 -6 91 -10 143 l-6 95 -62 94 c-34 52 -66 99 -72 105 -56 60 -156 212
-174 263 -25 71 -26 73 -51 211 -35 188 -36 183 3 264 79 164 122 385 131 669
3 75 -11 109 -43 109 -34 0 -45 -28 -48 -118 -6 -196 -43 -417 -88 -537 -54
-143 -152 -315 -179 -315 -3 0 -6 35 -6 78 0 64 -4 82 -18 95 -10 10 -26 17
-34 17 -32 0 -43 -31 -44 -129 -1 -53 -2 -100 -3 -104 0 -4 -19 -7 -41 -5 -26
1 -46 -4 -59 -16 -12 -11 -21 -14 -26 -7 -8 15 -48 14 -63 -1 -7 -7 -12 -27
-12 -45 0 -26 -5 -34 -22 -38 -50 -11 -126 -9 -144 3 -7 4 -15 39 -18 77 -8
87 -25 188 -34 202 -12 19 -47 24 -67 9 -18 -13 -18 -19 -6 -96 7 -45 14 -114
17 -153 2 -40 6 -94 9 -122 5 -58 6 -413 0 -500 -12 -192 -19 -284 -30 -375
-2 -19 -7 -60 -10 -90 -10 -88 -44 -353 -50 -380 -2 -14 -6 -41 -9 -60 -19
-147 -50 -298 -68 -337 -28 -60 -88 -120 -130 -131 -18 -5 -85 -10 -148 -11
-162 -2 -210 25 -188 106 11 44 67 98 126 123 26 11 58 26 72 33 l25 13 -1
179 c0 177 -10 461 -19 540 -2 22 -6 69 -10 105 -3 36 -7 79 -10 95 -3 17 -7
48 -10 70 -3 22 -13 69 -21 105 -8 36 -33 148 -54 248 -22 101 -44 190 -51
198 -17 20 -57 17 -71 -6 -12 -19 -13 -19 -34 7 -26 33 -61 27 -86 -14 -24
-40 -126 -166 -142 -175 -9 -5 -13 6 -13 44 -1 30 -8 57 -17 66 -21 22 -61 8
-75 -27 -7 -16 -27 -43 -44 -61 -33 -33 -103 -74 -115 -66 -4 2 -7 37 -6 78 0
56 6 83 24 118 51 97 124 249 168 350 34 79 46 121 50 170 4 62 -1 86 -42 240
-8 30 -17 72 -21 92 -5 30 -11 39 -32 44 -20 5 -31 2 -44 -14 -22 -27 -17 -68
22 -190 37 -117 38 -182 4 -262 -75 -178 -271 -555 -359 -688 -24 -37 -101
-126 -172 -198 -180 -184 -200 -186 -259 -29 -38 102 -82 185 -118 226 -42 46
-120 106 -165 124 -32 14 -34 18 -28 47 14 73 80 165 157 222 51 37 133 64
215 71 115 10 196 21 284 41 165 37 254 78 321 148 25 26 24 63 0 76 -29 15
-36 13 -72 -22 -46 -42 -135 -81 -244 -106 -111 -26 -141 -30 -310 -47 -70 -7
-141 -28 -207 -61 -39 -20 -57 -23 -110 -19 -200 17 -369 55 -470 106 -140 71
-180 216 -101 365 19 37 13 50 -47 96 -84 63 -125 200 -84 280 20 39 93 109
232 220 113 91 139 108 257 169 64 33 92 42 140 45 42 2 90 14 160 42 161 64
286 95 390 96 50 0 101 -3 115 -7 31 -9 47 1 55 35 11 44 -30 63 -140 65 -49
1 -108 -2 -130 -7 -22 -5 -53 -11 -70 -13 -38 -6 -257 -77 -270 -87 -5 -4 -33
-15 -62 -23 -93 -28 -151 4 -235 127 -84 123 -148 308 -148 429 0 62 31 131
73 161 24 18 43 21 120 21 51 -1 137 -4 192 -8 55 -4 141 -9 190 -12 113 -7
240 -23 271 -35 28 -11 67 -63 139 -185 62 -106 185 -346 202 -392 10 -30 15
-33 51 -33 23 0 42 5 45 13 10 23 185 -167 287 -313 60 -85 65 -89 92 -82 29
7 37 39 28 117 -6 64 -4 95 7 70 2 -5 23 -48 46 -95 l42 -85 41 1 42 1 11 -51
c11 -51 25 -141 37 -226 8 -61 8 -346 -1 -359 -9 -16 12 -48 35 -54 32 -8 60
28 61 82 9 285 -7 445 -64 661 -20 76 -73 218 -92 247 -31 47 -85 17 -80 -44
1 -13 0 -23 -1 -23 -2 0 -31 56 -64 125 -57 118 -62 125 -90 125 -35 0 -50
-22 -45 -70 2 -19 6 -75 10 -124 l6 -88 -74 88 c-86 104 -188 201 -238 228
-28 15 -37 27 -45 62 -9 40 -8 45 11 58 12 8 25 29 29 47 7 38 17 33 18 -10 1
-37 28 -64 59 -59 17 2 28 15 40 48 17 45 24 43 33 -10 8 -48 28 -115 38 -127
6 -7 21 -13 34 -13 33 0 38 14 44 115 5 89 5 90 30 89 83 -3 244 -15 249 -18
3 -2 27 -7 53 -10 108 -15 307 -87 358 -130 40 -34 90 -24 90 18 0 31 -43 67
-126 107 l-65 32 33 21 c18 11 105 57 193 101 126 63 161 85 163 102 2 14 -5
27 -21 38 -23 15 -28 14 -78 -5 -81 -32 -241 -116 -325 -171 -70 -46 -78 -49
-112 -40 -20 6 -57 13 -82 16 -25 3 -52 8 -60 10 -30 8 -127 17 -235 20 -60 3
-113 5 -116 5 -3 0 -11 24 -18 54 -14 61 -29 79 -63 74 -16 -2 -27 -15 -39
-48 -18 -49 -18 -49 -40 52 -15 72 -34 92 -69 75 -22 -11 -27 -25 -44 -117
-10 -58 -20 -107 -22 -109 -2 -2 -13 4 -24 14 -18 17 -21 17 -46 1 -14 -10
-27 -16 -29 -14 -1 2 -15 25 -30 53 -68 124 -140 209 -189 224 -70 22 -146 31
-411 46 -49 3 -121 8 -160 11 -117 9 -159 10 -180 7z m-430 -1688 l44 -46 -15
-42 c-16 -45 -21 -148 -9 -186 7 -22 6 -22 -22 -8 -65 34 -106 88 -132 175
-21 69 -19 150 5 208 29 71 35 71 62 5 13 -33 42 -79 67 -106z m1560 -1077
c-13 -373 -22 -536 -35 -630 -29 -210 -86 -316 -202 -373 -86 -42 -186 -57
-270 -41 -40 7 -58 36 -58 92 0 75 49 122 151 144 84 19 126 61 96 98 -6 8
-10 95 -10 222 l0 210 80 83 c137 141 159 166 204 237 24 38 45 70 46 70 1 0
0 -51 -2 -112z"/>
<path d="M3866 5351 c-22 -24 -21 -32 18 -103 19 -35 40 -92 46 -128 7 -36 15
-72 20 -80 9 -20 47 -25 67 -9 35 30 -15 224 -81 312 -19 25 -51 29 -70 8z"/>
<path d="M5810 5281 c-14 -27 -4 -47 35 -70 19 -11 43 -38 54 -60 28 -53 56
-69 82 -45 23 21 24 36 3 77 -46 90 -147 147 -174 98z"/>
<path d="M836 5050 c-34 -11 -82 -54 -102 -92 -38 -73 7 -148 88 -148 58 0
133 47 154 95 30 73 10 127 -54 145 -42 11 -47 11 -86 0z m58 -105 c-7 -18
-49 -45 -69 -45 -23 0 -1 36 33 54 30 16 44 12 36 -9z"/>
<path d="M4966 4728 c-24 -13 -20 -37 19 -121 65 -142 92 -319 71 -470 -8 -55
3 -77 39 -77 44 0 57 48 56 205 0 143 -26 255 -87 386 -37 79 -61 98 -98 77z"/>
<path d="M5905 4655 c-118 -41 -156 -186 -60 -232 11 -6 37 -9 59 -7 110 10
194 139 135 208 -31 35 -85 47 -134 31z m53 -107 c-17 -25 -63 -46 -75 -34
-11 11 44 56 69 56 19 0 19 -2 6 -22z"/>
<path d="M3352 4378 c-19 -19 -15 -36 28 -119 59 -115 91 -234 95 -359 2 -57
0 -124 -4 -147 -7 -35 -5 -48 9 -65 20 -25 63 -19 75 9 4 10 9 74 10 143 4
137 -13 241 -58 360 -23 61 -68 150 -90 178 -12 15 -49 16 -65 0z"/>
<path d="M1928 4350 c-9 -6 -31 -53 -48 -106 l-32 -96 20 -21 c37 -37 62 -13
97 89 32 95 33 112 7 132 -19 14 -22 14 -44 2z"/>
<path d="M3628 4339 c-23 -13 -23 -40 1 -87 39 -78 54 -207 38 -333 -8 -59 5
-89 38 -89 16 0 45 27 46 43 0 7 2 21 5 32 7 34 8 177 1 230 -6 54 -25 113
-53 166 -25 49 -42 58 -76 38z"/>
<path d="M4914 4280 c-29 -11 -33 -26 -24 -85 21 -137 3 -321 -46 -456 -29
-81 -22 -112 24 -107 61 7 112 183 117 403 4 209 -13 267 -71 245z"/>
<path d="M1362 4044 c-143 -71 -230 -270 -170 -388 54 -107 225 -191 349 -172
52 8 110 50 136 99 36 68 9 258 -55 383 -51 100 -154 131 -260 78z m146 -80
c32 -22 53 -67 77 -171 24 -102 24 -146 -3 -182 -41 -55 -137 -48 -236 17
-108 70 -113 165 -15 277 63 72 128 94 177 59z"/>
<path d="M1402 3894 c-12 -8 -22 -26 -22 -38 0 -54 74 -63 99 -12 13 27 12 31
-9 48 -27 22 -39 23 -68 2z"/>
<path d="M1438 3708 c-23 -23 -23 -40 0 -61 24 -22 55 -21 75 1 22 24 21 45 0
64 -24 20 -52 19 -75 -4z"/>
<path d="M2005 3654 c-30 -30 -18 -60 51 -123 66 -60 98 -73 122 -49 23 23 11
48 -54 110 -75 72 -97 84 -119 62z"/>
<path d="M4335 2740 c-93 -20 -129 -102 -86 -195 10 -22 27 -48 37 -57 23 -20
83 -45 102 -42 6 1 16 2 21 3 24 3 72 56 81 90 20 75 -36 184 -103 202 -12 3
-35 2 -52 -1z m50 -116 c20 -21 16 -78 -6 -82 -23 -4 -52 44 -45 74 7 28 28
31 51 8z"/>
<path d="M543 832 c-25 -20 -38 -61 -29 -97 7 -27 52 -55 89 -55 26 0 67 33
67 55 0 22 -14 18 -38 -10 -25 -29 -39 -31 -70 -9 -32 22 -30 78 3 100 23 15
65 12 65 -6 0 -12 29 -20 35 -10 3 5 -3 18 -15 30 -25 25 -77 26 -107 2z"/>
<path d="M1093 843 c-7 -3 -13 -11 -13 -18 0 -7 -6 -16 -12 -19 -10 -5 -10 -7
0 -12 6 -3 12 -23 12 -44 0 -54 8 -70 36 -70 27 0 32 15 9 24 -10 3 -15 19
-15 46 0 29 4 40 15 40 8 0 15 5 15 10 0 6 -6 10 -14 10 -8 0 -16 8 -18 18 -2
11 -9 17 -15 15z"/>
<path d="M1400 818 c0 -25 -3 -29 -12 -20 -31 31 -88 -1 -88 -49 0 -47 25 -68
80 -67 l50 1 0 84 c0 67 -3 83 -15 83 -10 0 -15 -10 -15 -32z m-8 -54 c19 -42
-15 -77 -49 -51 -16 12 -17 49 -1 65 19 19 37 14 50 -14z"/>
<path d="M1530 766 l0 -83 50 -2 c40 0 52 3 65 21 34 50 0 115 -56 104 -26 -5
-29 -3 -29 19 0 16 -6 25 -15 25 -12 0 -15 -16 -15 -84z m81 14 c23 -13 25
-53 3 -71 -33 -27 -72 33 -44 67 15 17 16 17 41 4z"/>
<path d="M1870 848 c0 -2 13 -39 29 -83 37 -105 55 -107 92 -10 32 81 34 95
15 95 -9 0 -23 -26 -37 -67 l-22 -68 -22 65 c-14 41 -28 66 -38 68 -10 2 -17
2 -17 0z"/>
<path d="M2330 829 c0 -9 -6 -20 -12 -23 -10 -5 -10 -7 0 -12 7 -3 12 -25 12
-55 0 -44 3 -49 25 -55 32 -8 46 4 22 17 -22 13 -25 89 -2 89 8 0 15 5 15 10
0 6 -7 10 -15 10 -8 0 -15 8 -15 18 0 10 -7 19 -15 19 -8 0 -15 -8 -15 -18z"/>
<path d="M2720 765 c0 -69 3 -85 15 -85 10 0 15 11 15 35 0 34 1 35 38 35 25
0 45 7 55 18 39 43 5 82 -71 82 l-52 0 0 -85z m98 56 c8 -5 12 -17 10 -27 -2
-14 -13 -20 -41 -22 -35 -3 -37 -2 -37 27 0 27 3 31 28 31 15 0 33 -4 40 -9z"/>
<path d="M2890 765 c0 -69 3 -85 15 -85 12 0 15 16 15 85 0 69 -3 85 -15 85
-12 0 -15 -16 -15 -85z"/>
<path d="M690 744 c0 -50 3 -64 15 -64 11 0 15 12 15 44 0 37 5 48 27 64 l26
19 -41 0 -42 0 0 -63z"/>
<path d="M790 790 c-56 -56 21 -143 86 -96 26 20 10 32 -21 16 -20 -11 -27
-11 -40 0 -23 19 -18 30 13 29 59 -3 72 0 65 19 -19 52 -67 68 -103 32z m68
-17 c2 -9 -7 -13 -28 -13 -28 0 -31 2 -20 15 15 18 41 16 48 -2z"/>
<path d="M929 790 c-23 -19 -23 -19 -3 -20 11 0 25 5 31 11 13 13 43 5 43 -10
0 -5 -18 -12 -40 -16 -27 -4 -41 -13 -45 -26 -11 -33 12 -48 69 -47 l53 1 -5
51 c-2 28 -9 57 -14 64 -15 18 -63 15 -89 -8z m71 -64 c0 -18 -39 -31 -52 -18
-15 15 0 32 28 32 14 0 24 -6 24 -14z"/>
<path d="M1180 788 c-25 -28 -26 -62 0 -88 24 -24 63 -26 85 -4 22 22 11 30
-20 14 -20 -11 -27 -11 -40 0 -24 20 -18 29 23 28 58 -1 62 1 55 20 -19 53
-68 68 -103 30z m68 -15 c2 -9 -7 -13 -28 -13 -28 0 -31 2 -20 15 15 18 41 16
48 -2z"/>
<path d="M1675 793 c34 -85 43 -122 31 -132 -7 -6 -16 -8 -19 -4 -4 3 -7 -1
-7 -10 0 -20 33 -23 48 -4 11 13 62 143 62 158 0 5 -6 9 -14 9 -7 0 -19 -20
-27 -47 l-13 -47 -19 47 c-11 26 -26 47 -34 47 -10 0 -13 -6 -8 -17z"/>
<path d="M2057 798 c-9 -7 -20 -27 -23 -44 -11 -58 60 -98 102 -57 20 21 4 29
-26 13 -16 -9 -25 -8 -36 1 -24 20 -16 31 24 29 58 -3 62 -2 55 18 -17 48 -61
66 -96 40z m61 -25 c2 -9 -7 -13 -28 -13 -28 0 -31 2 -20 15 15 18 41 16 48
-2z"/>
<path d="M2190 790 c-39 -39 -11 -110 44 -110 24 0 56 23 56 41 0 15 -22 10
-36 -8 -16 -23 -47 -7 -52 26 -7 42 28 60 61 33 12 -10 17 -10 23 -1 9 15 -23
39 -53 39 -13 0 -32 -9 -43 -20z"/>
<path d="M2430 790 c-41 -41 -10 -110 49 -110 34 0 61 30 61 67 0 30 -34 63
-65 63 -14 0 -34 -9 -45 -20z m68 -12 c28 -28 2 -88 -33 -75 -20 8 -30 54 -15
72 15 18 32 19 48 3z"/>
<path d="M2560 744 c0 -49 3 -64 14 -64 11 0 16 14 18 48 2 38 7 49 26 57 33
15 27 22 -18 22 l-40 0 0 -63z"/>
<path d="M2959 790 c-23 -19 -23 -19 -3 -20 11 0 25 5 31 11 12 12 43 6 43 -9
0 -4 -20 -13 -45 -20 -33 -9 -45 -17 -45 -31 0 -29 21 -40 76 -39 l51 1 -5 51
c-6 75 -52 99 -103 56z m59 -81 c-19 -13 -43 -6 -43 11 0 20 49 31 53 12 2 -8
-2 -19 -10 -23z"/>
<path d="M3110 790 c-39 -39 -11 -110 44 -110 24 0 56 23 56 41 0 16 -29 10
-39 -8 -15 -26 -46 -4 -46 32 0 36 31 57 49 33 8 -12 16 -14 27 -7 12 8 11 12
-5 24 -27 21 -62 19 -86 -5z"/>
<path d="M3250 790 c-11 -11 -20 -33 -20 -49 0 -51 69 -81 105 -45 19 20 13
30 -12 18 -26 -11 -47 -11 -55 1 -13 17 -9 22 15 22 70 1 76 3 70 21 -19 52
-67 68 -103 32z m54 -6 c26 -10 18 -24 -14 -24 -30 0 -41 14 -17 23 6 3 13 6
14 6 1 1 8 -2 17 -5z"/>
<path d="M533 573 c-4 -10 -11 -22 -17 -26 -8 -6 -7 -10 2 -14 7 -3 12 -25 12
-59 0 -41 4 -54 15 -54 11 0 15 13 15 54 0 34 5 56 13 59 9 4 8 8 -3 16 -12 9
-12 11 3 17 9 3 14 10 11 15 -9 16 -44 10 -51 -8z"/>
<path d="M1120 505 c0 -69 3 -85 15 -85 12 0 15 14 15 63 l0 62 38 -62 c22
-38 44 -63 55 -63 15 0 17 11 17 85 0 71 -3 85 -16 85 -12 0 -15 -10 -13 -50
2 -27 0 -52 -3 -55 -3 -4 -21 19 -39 49 -20 33 -41 56 -51 56 -16 0 -18 -11
-18 -85z"/>
<path d="M1800 505 c0 -69 3 -85 15 -85 10 0 15 11 15 35 0 35 0 35 45 35 50
0 72 23 59 63 -10 31 -22 37 -81 37 l-53 0 0 -85z m88 59 c13 -3 22 -12 22
-23 0 -21 -19 -31 -56 -31 -20 0 -24 5 -24 28 0 30 12 35 58 26z"/>
<path d="M2200 580 c0 -5 7 -10 15 -10 8 0 15 5 15 10 0 6 -7 10 -15 10 -8 0
-15 -4 -15 -10z"/>
<path d="M2563 583 c-7 -3 -13 -11 -13 -18 0 -7 -6 -16 -12 -18 -10 -4 -10 -7
-1 -14 6 -5 13 -31 15 -58 3 -46 5 -50 31 -53 29 -4 37 12 12 22 -10 3 -15 19
-15 46 0 29 4 40 15 40 8 0 15 5 15 10 0 6 -6 10 -14 10 -8 0 -16 8 -18 18 -2
11 -9 17 -15 15z"/>
<path d="M600 484 c0 -49 3 -64 14 -64 11 0 16 14 18 47 2 38 8 50 26 59 28
14 19 21 -25 22 l-33 1 0 -65z"/>
<path d="M700 530 c-11 -11 -20 -31 -20 -45 0 -14 9 -34 20 -45 11 -11 31 -20
45 -20 14 0 34 9 45 20 11 11 20 31 20 45 0 14 -9 34 -20 45 -11 11 -31 20
-45 20 -14 0 -34 -9 -45 -20z m68 -12 c32 -32 1 -89 -37 -68 -26 13 -28 55 -3
69 22 13 26 13 40 -1z"/>
<path d="M830 484 c0 -50 3 -64 15 -64 11 0 15 12 15 49 0 35 4 51 16 55 26
10 34 -3 34 -55 0 -37 4 -49 15 -49 11 0 15 12 15 49 0 35 4 51 16 55 26 10
34 -3 34 -55 0 -37 4 -49 15 -49 19 0 21 100 3 118 -15 15 -55 16 -63 2 -4 -7
-11 -8 -18 -2 -7 5 -31 10 -54 9 l-43 0 0 -63z"/>
<path d="M1310 530 c-11 -11 -20 -31 -20 -45 0 -14 9 -34 20 -45 11 -11 31
-20 45 -20 14 0 34 9 45 20 11 11 20 31 20 45 0 14 -9 34 -20 45 -11 11 -31
20 -45 20 -14 0 -34 -9 -45 -20z m70 -14 c28 -34 -11 -94 -44 -67 -21 18 -20
57 2 70 23 14 28 13 42 -3z"/>
<path d="M1440 496 c0 -63 10 -74 68 -73 l42 0 0 63 c0 50 -3 64 -15 64 -11 0
-15 -12 -15 -49 0 -35 -4 -51 -16 -55 -26 -10 -34 3 -34 55 0 37 -4 49 -15 49
-11 0 -15 -13 -15 -54z"/>
<path d="M1580 485 c0 -51 3 -65 15 -65 11 0 15 12 15 49 0 35 4 51 16 55 26
10 34 -3 34 -55 0 -38 4 -49 15 -49 13 0 15 11 13 56 -3 66 -23 88 -58 66 -12
-7 -20 -8 -20 -2 0 5 -7 10 -15 10 -12 0 -15 -14 -15 -65z"/>
<path d="M1960 484 c0 -49 3 -64 14 -64 11 0 16 14 18 47 2 39 7 50 28 60 14
7 23 13 20 14 -3 1 -22 3 -42 4 l-38 4 0 -65z"/>
<path d="M2062 534 c-45 -31 -14 -114 43 -114 14 0 34 9 45 20 58 58 -20 142
-88 94z m66 -16 c32 -32 1 -89 -37 -68 -26 13 -28 55 -3 69 22 13 26 13 40 -1z"/>
<path d="M2200 477 c0 -43 -5 -78 -12 -85 -16 -16 -1 -29 20 -16 24 16 31 174
7 174 -12 0 -15 -14 -15 -73z"/>
<path d="M2270 530 c-11 -11 -20 -31 -20 -45 0 -53 69 -85 106 -48 20 21 4 29
-26 13 -16 -9 -25 -8 -36 1 -25 20 -15 29 31 26 41 -2 45 0 45 20 0 24 -34 53
-62 53 -10 0 -27 -9 -38 -20z m54 -6 c26 -10 18 -24 -14 -24 -30 0 -41 14 -17
23 6 3 13 6 14 6 1 1 8 -2 17 -5z"/>
<path d="M2410 530 c-27 -27 -26 -75 2 -94 30 -21 61 -20 81 2 21 23 21 32 2
32 -8 0 -15 -4 -15 -9 0 -15 -32 -22 -47 -10 -19 16 -13 59 10 73 14 8 21 8
30 -4 16 -20 37 -23 37 -5 0 35 -69 46 -100 15z"/>
</g>
</svg>
